<?xml version="1.0"?>
<svg xmlns="http://www.w3.org/2000/svg" id="outline" viewBox="0 0 64 64" width="512" height="512"><circle cx="27" cy="31" r="1"/><circle cx="37" cy="31" r="1"/><rect x="31" y="32" width="2" height="4"/><path d="M32,41a7.98713,7.98713,0,0,0,4.123-1.14355l-1.03125-1.7129a6.10485,6.10485,0,0,1-6.1836,0L27.877,39.85645A7.98713,7.98713,0,0,0,32,41Z"/><path d="M47,8.02637V5a3.00328,3.00328,0,0,0-3-3H20a3.00328,3.00328,0,0,0-3,3V8.02637a6.98932,6.98932,0,0,0,.35938,2.21386l3.26617,9.79767A2.00174,2.00174,0,0,0,19,22v4a2.0026,2.0026,0,0,0,2,2v7a11.00327,11.00327,0,0,0,6,9.78571V47.3335l-8.92285,3.71826A4.98586,4.98586,0,0,0,15,55.667V62h2V55.667a2.99271,2.99271,0,0,1,1.84668-2.76953L24,50.75V54a3.00328,3.00328,0,0,0-3,3v5h2V57a1.00067,1.00067,0,0,1,1-1H40a1.00067,1.00067,0,0,1,1,1v5h2V57a3.00328,3.00328,0,0,0-3-3V50.75l5.15332,2.14746A2.99271,2.99271,0,0,1,47,55.667V62h2V55.667a4.98586,4.98586,0,0,0-3.07715-4.61523L37,47.3335V44.78571A11.00327,11.00327,0,0,0,43,35V28a2.0026,2.0026,0,0,0,2-2V22a2.00174,2.00174,0,0,0-1.62555-1.9621l3.26617-9.79767A6.98932,6.98932,0,0,0,47,8.02637ZM33,4h6V8.877L36.21967,20H33ZM25,4h6V20H27.78033L25,8.877ZM19.25586,9.60742A4.99154,4.99154,0,0,1,19,8.02637V5a1.00067,1.00067,0,0,1,1-1h3V9l2.72278,11H22.72034ZM38,49.91663V54H26V49.91663l1.226-.51093a4.96758,4.96758,0,0,0,9.548,0ZM29,48V45.57355a10.76546,10.76546,0,0,0,6,0V48a3,3,0,0,1-6,0ZM41,35a9,9,0,0,1-18,0V28H41Zm2-9H21V22H43ZM45,8.02637a4.99154,4.99154,0,0,1-.25586,1.581L41.27966,20H38.28027L40.96973,9.24219,40.99518,4H44a1.00067,1.00067,0,0,1,1,1Z"/></svg>
