<?xml version="1.0" standalone="no"?><!DOCTYPE svg PUBLIC "-//W3C//DTD SVG 1.1//EN" "http://www.w3.org/Graphics/SVG/1.1/DTD/svg11.dtd"><svg class="icon" height="512" viewBox="0 0 1024 1024" version="1.1" xmlns="http://www.w3.org/2000/svg"><path d="M661.4286193847655 557.6547851562501v168.42535400390628H289.8564453125V213.22927856445312h371.57135009765625v86.65328979492189h70.57012939453126V212.857666015625c0-51.88403320312501-41.68322753906251-93.48568725585938-93.1058349609375-93.48568725585938H310.96420288085943c-51.03451538085937 0-93.10830688476561 41.85461425781249-93.10830688476561 93.48568725585938v607.6145324707031c0 51.883209228515625 41.6865234375 93.48568725585938 93.10830688476561 93.48568725585938H638.89208984375c51.03286743164063 0 93.1058349609375-41.85543823242187 93.1058349609375-93.48568725585938v-268.87939453125h-54.519927978515625l-16.04937744140625 6.061981201171875zM474.927734375 868.732391357422c-27.378204345703125 0-49.57360839843751-21.74716186523437-49.57360839843751-48.569183349609375 0-26.82614135742188 22.19622802734375-48.570831298828125 49.57360839843751-48.570831298828125s49.572784423828125 21.74551391601562 49.572784423828125 48.570831298828125c0 26.82284545898437-22.193756103515625 48.569183349609375-49.572784423828125 48.569183349609375z" fill="#F9CF36" /><path d="M543.23193359375 617.3146667480469c-5.759582519531251 0-11.143432617187498-2.449676513671875-14.771392822265625-6.720336914062501-3.856201171874999-4.538452148437501-5.401977539062501-10.560058593750002-4.353057861328126-16.9573974609375l4.358001708984374-26.588836669921875h-32.78594970703125c-9.907470703124998 0-19.93853759765625-0.7992553710937499-24.209197998046875-10.341705322265627-0.8404541015625-1.8761901855468752-1.8852539062499998-4.211334228515625-1.8852539062499998-15.752746582031246V310.52008056640625c0-9.9107666015625 0.7992553710937499-19.9434814453125 10.348297119140623-24.210845947265625 1.8753662109375-0.8388061523437499 4.209686279296875-1.8811340332031248 15.745330810546877-1.8811340332031248H843.5756225585938c11.54058837890625 0 13.874908447265623 1.0447998046875 15.750274658203121 1.88360595703125 9.544097900390625 4.265716552734375 10.343353271484375 14.298431396484375 10.343353271484375 24.2083740234375v230.43356323242188c0 9.906646728515625-0.7992553710937499 19.9368896484375-10.34088134765625 24.2083740234375-1.8597106933593752 0.83551025390625-4.198150634765625 1.886077880859375-15.752746582031246 1.886077880859375H685.7177429199219c-2.68450927734375 0-7.976898193359373 0.9656982421875-10.486724853515625 1.9140930175781248l-124.03536987304686 46.85202026367187c-2.63507080078125 0.995361328125-5.31463623046875 1.5004577636718748-7.963714599609375 1.5004577636718748z m-42.73626708984375-81.17715454101562h37.92425537109376c6.704681396484375 0 12.9759521484375 2.8575439453125 17.207061767578125 7.838470458984374s6.035614013671875 11.632049560546877 4.952087402343749 18.24774169921875l-2.9712524414062496 18.12744140625L664.303466796875 540.0480957031249c6.00018310546875-2.266754150390625 15.004577636718754-3.9105834960937504 21.41427612304688-3.9105834960937504h153.04092407226562V315.3378601074219H500.4956665039062v220.79965209960935z" fill="#F9CF36" /><path d="M624.0638427734376 486.86547851562494c-2.7784423828124996-3.580169677734375-2.123382568359375-8.782745361328125 1.456787109375-11.56201171875l136.37603759765622-105.86920166015625c3.580169677734375-2.7792663574218754 8.782745361328125-2.12420654296875 11.56201171875 1.455963134765625l10.415039062500002 13.415130615234373c2.7792663574218754 3.579345703125001 2.12420654296875 8.78192138671875-1.455963134765625 11.561187744140625L646.0392456054689 501.7357482910156c-3.580169677734375 2.7792663574218754-8.782745361328125 2.12420654296875-11.561187744140625-1.455963134765625l-10.414215087890623-13.414306640625002z" fill="#F9CF36" /><path d="M646.0474853515624 501.72503662109375c-3.580169677734375 2.7792663574218754-8.782745361328125 2.12420654296875-11.561187744140625-1.455963134765625l-55.91162109374999-72.02279663085938c-2.7784423828124996-3.579345703125001-2.123382568359375-8.78192138671875 1.456787109375-11.561187744140625l13.412658691406248-10.413391113281248c3.580169677734375-2.7792663574218754 8.782745361328125-2.12420654296875 11.561187744140625 1.455963134765625l55.91162109374999 72.02279663085938c2.7784423828124996 3.580169677734375 2.123382568359375 8.782745361328125-1.456787109375 11.56201171875l-13.412658691406248 10.412567138671877z" fill="#F9CF36" /></svg>